<?xml version="1.0" encoding="utf-8"?>
<!-- Generator: Adobe Illustrator 16.0.0, SVG Export Plug-In . SVG Version: 6.00 Build 0)  -->
<!DOCTYPE svg PUBLIC "-//W3C//DTD SVG 1.1//EN" "http://www.w3.org/Graphics/SVG/1.1/DTD/svg11.dtd">
<svg version="1.1" id="Layer_2" xmlns="http://www.w3.org/2000/svg" xmlns:xlink="http://www.w3.org/1999/xlink" x="0px" y="0px"
	 width="64px" height="64px" viewBox="0 0 64 64" enable-background="new 0 0 64 64" xml:space="preserve">
<g>
	<path fill-rule="evenodd" clip-rule="evenodd" fill="#FFFFFF" stroke="#FFFFFF" stroke-width="2" stroke-miterlimit="10" d="
		M57.521,11.157c0,0.033,0,0.065,0,0.098c-0.123,0.098-0.259,0.185-0.37,0.296C50.053,18.646,42.957,25.742,35.86,32.84
		c-0.122,0.122-0.239,0.25-0.365,0.384c0.122,0.132,0.206,0.229,0.297,0.319c7.129,7.133,14.261,14.264,21.395,21.393
		c0.099,0.1,0.224,0.176,0.335,0.262c0,0.032,0,0.063,0,0.098c-0.976,0.977-1.952,1.953-2.929,2.93c-0.034,0-0.064,0-0.098,0
		c-0.098-0.125-0.183-0.262-0.294-0.372c-7.096-7.099-14.192-14.195-21.289-21.292c-0.123-0.122-0.251-0.238-0.387-0.365
		c-0.131,0.122-0.228,0.207-0.318,0.297c-7.132,7.131-14.264,14.264-21.394,21.396c-0.099,0.099-0.174,0.223-0.261,0.336
		c-0.033,0-0.065,0-0.098,0c-0.977-0.977-1.953-1.953-2.929-2.93c0-0.034,0-0.065,0-0.098c0.125-0.098,0.26-0.183,0.372-0.293
		c7.098-7.095,14.196-14.194,21.292-21.291c0.123-0.123,0.239-0.251,0.367-0.385c-0.122-0.133-0.206-0.229-0.297-0.32
		c-7.132-7.132-14.263-14.264-21.396-21.394c-0.099-0.1-0.224-0.174-0.336-0.26c0-0.032,0-0.065,0-0.098
		c0.977-0.977,1.953-1.953,2.929-2.929c0.033,0,0.064,0,0.098,0c0.099,0.125,0.185,0.259,0.296,0.371
		c7.096,7.099,14.193,14.195,21.29,21.292c0.122,0.122,0.25,0.239,0.384,0.366c0.133-0.122,0.23-0.206,0.32-0.296
		c7.132-7.131,14.263-14.262,21.393-21.396c0.099-0.099,0.174-0.224,0.26-0.336c0.033,0,0.063,0,0.098,0
		C55.569,9.205,56.546,10.181,57.521,11.157z"/>
</g>
</svg>
