<?xml version="1.0" encoding="utf-8"?>
<!-- Generator: Adobe Illustrator 16.0.0, SVG Export Plug-In . SVG Version: 6.00 Build 0)  -->
<!DOCTYPE svg PUBLIC "-//W3C//DTD SVG 1.0//EN" "http://www.w3.org/TR/2001/REC-SVG-20010904/DTD/svg10.dtd">
<svg version="1.0" id="Layer_1" xmlns="http://www.w3.org/2000/svg" xmlns:xlink="http://www.w3.org/1999/xlink" x="0px" y="0px"
	 width="64px" height="64px" viewBox="0 0 64 64" enable-background="new 0 0 64 64" xml:space="preserve">
<path fill="#F16759" d="M63.349,51.316c0,6.627-5.373,12-12,12H12.736c-6.627,0-12-5.373-12-12V12.703c0-6.627,5.373-12,12-12
	h38.613c6.627,0,12,5.373,12,12V51.316z"/>
<g>
	<path fill-rule="evenodd" clip-rule="evenodd" fill="#FFFFFF" d="M55.082,32.082c0,0.3,0,0.601,0,0.902
		c-0.023,0.037-0.059,0.068-0.073,0.11c-0.405,1.21-1.185,1.779-2.449,1.781c-1.038,0.001-2.075,0-3.113,0c-0.386,0-0.772,0-1.195,0
		c0,0.236,0,0.414,0,0.592c0,3.88,0.001,7.761-0.003,11.641c-0.002,1.637-0.941,2.574-2.572,2.576c-2.392,0.003-4.783,0.001-7.174,0
		c-1.706,0-2.635-0.939-2.637-2.66c-0.001-2.151,0.024-4.302-0.013-6.453c-0.042-2.399-2.382-4.184-4.722-3.646
		c-1.858,0.428-3.05,1.941-3.063,3.93c-0.014,2.091,0.002,4.181-0.005,6.271c-0.005,1.596-0.969,2.556-2.559,2.558
		c-2.391,0.003-4.782,0.001-7.173,0c-1.737,0-2.664-0.932-2.664-2.68c-0.001-3.85,0-7.7,0-11.549c0-0.177,0-0.354,0-0.58
		c-0.207,0-0.368,0-0.528,0c-1.263,0-2.527,0.003-3.79-0.002c-0.194-0.001-0.393-0.01-0.582-0.048
		c-1.025-0.206-1.583-0.899-1.896-1.842c0-0.301,0-0.602,0-0.902c0.212-0.603,0.539-1.112,1.047-1.531
		c6.753-5.568,13.498-11.147,20.244-16.724c1.286-1.063,2.307-1.075,3.585-0.018c6.679,5.517,13.351,11.042,20.038,16.549
		C54.367,30.839,54.853,31.353,55.082,32.082z"/>
</g>
</svg>
