<?xml version="1.0" encoding="utf-8"?>
<!-- Generator: Adobe Illustrator 16.0.0, SVG Export Plug-In . SVG Version: 6.00 Build 0)  -->
<!DOCTYPE svg PUBLIC "-//W3C//DTD SVG 1.1//EN" "http://www.w3.org/Graphics/SVG/1.1/DTD/svg11.dtd">
<svg version="1.1" id="Layer_1" xmlns="http://www.w3.org/2000/svg" xmlns:xlink="http://www.w3.org/1999/xlink" x="0px" y="0px"
	 width="1080px" height="211.48px" viewBox="0 434.26 1080 211.48" enable-background="new 0 434.26 1080 211.48"
	 xml:space="preserve">
<g>
	<defs>
		<rect id="SVGID_1_" y="434.26" width="1080" height="211.48"/>
	</defs>
	<clipPath id="SVGID_2_">
		<use xlink:href="#SVGID_1_"  overflow="visible"/>
	</clipPath>
	<path clip-path="url(#SVGID_2_)" fill="#FFFFFF" d="M-273.795,632.854c0.353-2.647,15.888-24.714,41.661-8.826
		c6.532-21.007,21.537-18.183,33.011-10.944c2.825-24.891,15.005-36.895,34.07-26.833c8.649-17.476,26.126-34.6,54.018-16.594
		c-2.295-11.297,17.3-24.537,36.894-7.767c2.295-14.828,20.125-31.246,40.072-21.713c7.59-7.414,13.593-5.119,18.888,3.354
		c5.649-3.884,13.77,3.354,13.593,11.298c4.943-25.949,34.247-32.305,49.251-18.712c15.005-14.476,32.481-16.594,49.958,1.06
		c0.706-22.772,21.713-28.774,37.777-22.243c3.178-7.767,13.593-7.767,19.771,1.589c5.296-3.178,12.886-1.235,13.593,7.591
		c3.53-15.357,28.774-22.596,41.131-6.885c6.532-9.355,21.713-12.71,36.718,3.178c10.592-15.005,25.597-18.889,39.189-11.475
		c9.709-6.531,20.831-0.706,22.243,11.122c11.121-16.241,42.19-21.537,54.724-0.883c12.71-5.119,22.596,1.941,28.598,12.356
		c4.061-1.059,9.355,1.942,9.18,7.062c4.06-6.002,11.474-9.709,17.829-7.414c12.71-11.121,29.657-19.948,58.431-5.826
		c21.713-10.944,42.896-1.235,52.253,8.827c6.354-14.299,68.492-26.303,49.957,35.835c-2.295,3.178,86.146,132.926,85.263,142.988
		h-945.838c-25.067,0-71.317-13.946-71.494-37.777c-2.471-9.18,4.943-16.947,14.476-19.771c3.354-21.89,22.066-14.299,25.773-14.651
		C-304.511,619.438-289.33,622.262-273.795,632.854L-273.795,632.854z"/>
</g>
<g>
	<defs>
		<rect id="SVGID_3_" y="434.26" width="1080" height="211.48"/>
	</defs>
	<clipPath id="SVGID_4_">
		<use xlink:href="#SVGID_3_"  overflow="visible"/>
	</clipPath>
	<path clip-path="url(#SVGID_4_)" fill="#FFFFFF" d="M941.955,585.191c-3.707-14.828-19.065-14.476-21.184-5.473
		c-6.708-5.825-14.299-10.415-19.065-3.001c0.177-18.183-3.53-30.187-14.299-32.128c-0.529-19.242-12.533-22.772-20.653-19.771
		c-7.062-9.709-14.122-15.005-22.419-9.886c-2.295-14.651-11.475-23.478-25.95-16.77c-1.412-7.591-11.298-12.004-16.417-8.474
		c-13.239-4.942-29.656-4.413-40.248,16.594c-15.005-15.005-33.717-14.828-44.132-5.473c-20.478-2.118-33.188,14.476-37.071,30.01
		c-14.299,1.412-22.419,18.006-22.419,27.009c-5.119-11.121-11.651-17.652-23.126-11.298c-3.354-6.178-12.004-9.355-16.417-3.884
		c-10.944-4.413-24.537-1.765-28.598,16.594c-15.887-1.765-27.538,7.768-25.243,31.423c-6.002-12.887-16.064-10.945-21.007-3.884
		c-9.709-7.062-18.006-3.707-24.008,8.649c-11.121-3.354-21.89,9.18-18.535,24.361c-42.544,10.944-58.078,47.133-51.547,73.082
		c-19.064,4.414-33.717,14.829-42.366,26.303c-40.072,53.136,57.548,40.602,94.619,40.602h380.418
		c115.979,0,148.99-37.601,139.987-80.673c2.118-13.063-0.529-26.126-16.594-36.718
		C997.208,610.435,974.083,585.721,941.955,585.191z"/>
</g>
<g>
	<defs>
		<rect id="SVGID_5_" y="434.26" width="1080" height="211.48"/>
	</defs>
	<clipPath id="SVGID_6_">
		<use xlink:href="#SVGID_5_"  overflow="visible"/>
	</clipPath>
	<path clip-path="url(#SVGID_6_)" fill="#FFFFFF" d="M1423.7,577.953c-1.941-16.24-17.829-24.36-37.601-20.301
		c-5.119-10.062-22.419-15.887-46.073-3.177c-7.062-18.006-18.712-28.421-38.837-25.597c-5.472-9.886-19.064-16.417-28.597-4.061
		c-13.593-17.829-24.008-20.124-37.601-6.708c-10.063-13.945-25.95-18.006-31.599,1.589c-16.064-6.531-27.362-0.354-31.599,16.594
		c-6.002-2.472-12.71,7.591-12.887,13.593c-17.653-1.766-28.774,3.707-38.483,22.772c-11.474-17.477-17.652-25.597-37.953-17.83
		c1.941-16.417-8.12-37.07-39.543-32.128c-4.589-10.769-37.601-35.659-77.143-8.12c-19.418-9.356-39.013,6.179-39.542,23.654
		c-17.83-11.121-39.014-8.12-47.84,11.828c-15.711-15.005-44.132-31.775-72.199-3.354c-6.002-7.943-16.947-13.593-28.245-3.354
		c-6.885-4.236-18.535-1.059-19.241,10.416c-35.659-0.177-42.367,10.944-53.136,42.014c-17.829-7.768-27.185,0.706-31.245,16.77
		c-14.122-2.118-24.714,2.119-27.715,18.889c-10.769-12.356-23.302-9.003-29.48,4.59c-11.121-9.532-22.772-4.59-27.538,11.651
		c-13.77-3.354-39.366,14.828-36.718,39.188c-43.073,9.533-101.504,33.718-103.446,96.562
		c-0.882,30.893,14.652,57.019,34.953,74.318c33.011,28.421,78.731,36.895,118.45,36.895h884.406l10.592-0.883v-284.74
		c-7.414-9.709-17.476-17.123-35.129-12.004C1459.359,578.66,1432.174,573.54,1423.7,577.953L1423.7,577.953z"/>
</g>
<g>
	<defs>
		<rect id="SVGID_7_" y="434.26" width="1080" height="211.48"/>
	</defs>
	<clipPath id="SVGID_8_">
		<use xlink:href="#SVGID_7_"  overflow="visible"/>
	</clipPath>
	<path clip-path="url(#SVGID_8_)" fill="#FFFFFF" d="M-205.832,644.328c1.942-16.24,17.83-24.361,37.601-20.301
		c5.119-10.063,22.419-15.888,46.074-3.178c7.061-18.006,18.712-28.421,38.836-25.597c5.472-9.885,19.065-16.417,28.598-4.06
		c13.593-17.829,24.008-20.124,37.601-6.708c1.765-14.652,25.773-18.006,31.422,1.589c16.064-6.532,27.362-0.354,31.599,16.594
		c6.002-2.472,12.71,7.59,12.886,13.592c17.653-1.765,28.774,3.707,38.483,22.772c11.474-17.477,17.653-25.597,37.954-17.829
		c3.354-16.771,11.651-33.011,39.542-32.128c4.589-10.769,8.473-11.828,18.006-12.181c18.712-11.475,44.132-5.825,58.96,4.06
		c25.067-6.002,36.541,8.121,39.542,23.655c19.595-9.18,37.601-12.887,47.84,11.827c18.712-23.831,46.956-29.304,72.199-3.354
		c6.002-7.944,18.183-15.711,28.245-3.354c6.885-4.236,18.889-1.235,19.241,10.415c35.659-0.177,42.367,10.945,53.135,42.014
		c17.83-7.767,27.186,0.706,31.246,16.771c14.122-2.118,24.714,2.118,27.715,18.889c10.769-12.357,23.302-9.003,29.48,4.59
		c11.121-9.533,22.771-4.59,27.538,11.65c13.77-3.354,39.366,14.828,36.718,39.189c43.073,9.532,101.504,33.717,103.445,96.561
		c0.883,30.893-14.651,57.02-34.952,74.319c-33.011,28.421-78.731,36.894-118.45,36.894h-884.407l-10.591-0.882v-284.74
		c7.414-9.709,17.476-17.123,35.129-12.004C-241.491,645.034-214.305,639.915-205.832,644.328L-205.832,644.328z"/>
</g>
<g>
	<defs>
		<rect id="SVGID_9_" y="434.26" width="1080" height="211.48"/>
	</defs>
	<clipPath id="SVGID_10_">
		<use xlink:href="#SVGID_9_"  overflow="visible"/>
	</clipPath>
	<path clip-path="url(#SVGID_10_)" fill="#FFFFFF" d="M726.767,640.268c-10.238-13.945-22.948-16.063-34.246-4.942
		c-5.296-12.533-25.243-21.713-42.543-11.121c-1.589-9.003-28.774-29.304-45.015-12.004c-1.236-6.002-8.297-23.479-26.127-13.24
		c-8.473-8.473-25.949-6.002-26.303,7.238c-23.302-8.65-27.538,3.707-28.598,8.649c-12.18-7.414-22.419-4.59-27.715,8.121
		c-8.297-1.942-20.653-2.472-26.832,8.296c-8.65,2.472-21.536,9.18-22.419,25.421c-13.239-17.477-22.066-12.71-33.54-8.121
		c-13.946-7.59-27.186,0.706-30.187,7.415c-9.709-0.354-19.065,3.707-24.891,15.711c-10.063-9.356-25.773-5.296-31.775,1.941
		c-12.181-3.354-22.066-1.589-25.42,9.532c-5.473-13.239-23.302-13.063-25.244-7.061c-7.944-9.886-32.481-7.238-36.188,6.885
		c0.353-2.648-21.36,4.06-21.007,17.476c-6.708-2.647-12.71-13.239-30.187-4.766c-3.531-6.708-17.83-10.239-25.42-0.53
		c-15.182-3.177-30.54,1.06-33.894,21.89c-2.295-8.12-11.122-18.358-20.125-15.357c-3.707-9.003-25.42-16.947-29.304-5.649
		c-9.532-11.298-13.945-16.063-26.656-12.004c-12.004-14.828-28.774-16.594-38.13-5.296c-6.708-4.413-26.303,2.472-25.42,12.534
		c-6.532-10.592-15.535-12.181-25.597-3.354c-7.414-1.766-17.124-1.941-18.006,12.533c-10.592-12.356-19.595-14.299-33.364-7.943
		c-11.651-18.535-30.893-18.359-39.013-8.297c4.413-21.89-11.298-32.834-23.479-35.306c-9.179-9.532-20.301-3.707-22.419,4.413
		c-7.768-1.941-15.005,3.53-15.535,12.004c-3.177-6.531-9.179-9.003-17.476-7.062v254.378H902.942
		c92.501,0,102.21-50.134,90.382-114.391c12.004-41.66,1.236-84.204-38.482-113.331c-0.707-21.36-13.24-26.126-24.715-26.126
		c-10.062-12.357-26.126-13.593-44.661,1.059c-11.121-6.531-27.892-3.883-37.601,11.298c1.589-15.534-17.829-29.127-27.186-22.065
		c-17.123-18.359-37.07-13.24-46.604-5.649C762.778,627.205,750.422,624.381,726.767,640.268z"/>
</g>
<g>
	<defs>
		<rect id="SVGID_11_" y="434.26" width="1080" height="211.48"/>
	</defs>
	<clipPath id="SVGID_12_">
		<use xlink:href="#SVGID_11_"  overflow="visible"/>
	</clipPath>
	<path clip-path="url(#SVGID_12_)" fill="none" d="M0,52.958h1080v1080H0V52.958z"/>
</g>
</svg>
